<?xml version="1.0" encoding="UTF-8" standalone="no"?>
<!-- Created with Inkscape (http://www.inkscape.org/) -->

<svg
   xmlns:dc="http://purl.org/dc/elements/1.1/"
   xmlns:cc="http://creativecommons.org/ns#"
   xmlns:rdf="http://www.w3.org/1999/02/22-rdf-syntax-ns#"
   xmlns:svg="http://www.w3.org/2000/svg"
   xmlns="http://www.w3.org/2000/svg"
   xmlns:sodipodi="http://sodipodi.sourceforge.net/DTD/sodipodi-0.dtd"
   xmlns:inkscape="http://www.inkscape.org/namespaces/inkscape"
   width="444.97321"
   height="167.83316"
   id="svg2"
   version="1.1"
   inkscape:version="0.48.4 r9939"
   sodipodi:docname="New document 1">
  <defs
     id="defs4" />
  <sodipodi:namedview
     id="base"
     pagecolor="#ffffff"
     bordercolor="#666666"
     borderopacity="1.0"
     inkscape:pageopacity="0.0"
     inkscape:pageshadow="2"
     inkscape:zoom="0.49497475"
     inkscape:cx="578.75997"
     inkscape:cy="163.15849"
     inkscape:document-units="px"
     inkscape:current-layer="layer1"
     showgrid="false"
     showguides="true"
     inkscape:guide-bbox="true"
     fit-margin-top="0"
     fit-margin-left="0"
     fit-margin-right="0"
     fit-margin-bottom="0"
     inkscape:window-width="1858"
     inkscape:window-height="1058"
     inkscape:window-x="-8"
     inkscape:window-y="-8"
     inkscape:window-maximized="1" />
  <metadata
     id="metadata7">
    <rdf:RDF>
      <cc:Work
         rdf:about="">
        <dc:format>image/svg+xml</dc:format>
        <dc:type
           rdf:resource="http://purl.org/dc/dcmitype/StillImage" />
        <dc:title></dc:title>
      </cc:Work>
    </rdf:RDF>
  </metadata>
  <g
     inkscape:label="Layer 1"
     inkscape:groupmode="layer"
     id="layer1"
     transform="translate(-124.14314,-112.67411)">
    <path
       style="fill:none;stroke:#000000;stroke-width:3;stroke-miterlimit:4;stroke-dasharray:none"
       d="m 154.21509,153.79558 0,-32.64702 368.71284,0 0,66.53102 m 0,25.53516 0,65.79254 -368.71284,0 0.1478,-37.40703"
       id="rect2985"
       inkscape:connector-curvature="0"
       sodipodi:nodetypes="cccccccc" />
    <path
       sodipodi:type="arc"
       style="fill:none;stroke:#000000;stroke-width:3.1819427;stroke-miterlimit:4;stroke-dasharray:none"
       id="path3755"
       sodipodi:cx="181.42857"
       sodipodi:cy="222.71933"
       sodipodi:rx="27.857143"
       sodipodi:ry="13.214286"
       d="m 181.86899,235.93196 c -15.38315,0.11539 -28.05084,-5.70658 -28.29408,-13.00371 -0.24324,-7.29714 12.03009,-13.30617 27.41324,-13.42155 0.31513,-0.002 0.63031,-0.002 0.94542,5.2e-4"
       sodipodi:start="1.5549857"
       sodipodi:end="4.730518"
       transform="matrix(1.0501197,0,0,0.84648445,-35.625169,-1.2846136)"
       sodipodi:open="true" />
    <path
       sodipodi:type="arc"
       style="fill:none;stroke:#000000;stroke-width:3.1819427;stroke-miterlimit:4;stroke-dasharray:none"
       id="path3755-7"
       sodipodi:cx="181.42857"
       sodipodi:cy="222.71933"
       sodipodi:rx="27.857143"
       sodipodi:ry="13.214286"
       d="m 181.86899,235.93196 c -15.38315,0.11539 -28.05084,-5.70658 -28.29408,-13.00371 -0.24324,-7.29714 12.03009,-13.30617 27.41324,-13.42155 0.31513,-0.002 0.63031,-0.002 0.94542,5.2e-4"
       sodipodi:start="1.5549857"
       sodipodi:end="4.730518"
       transform="matrix(1.0501197,0,0,0.84648445,-35.544142,20.834736)"
       sodipodi:open="true" />
    <path
       sodipodi:type="arc"
       style="fill:none;stroke:#000000;stroke-width:3.1819427;stroke-miterlimit:4;stroke-dasharray:none"
       id="path3755-4"
       sodipodi:cx="181.42857"
       sodipodi:cy="222.71933"
       sodipodi:rx="27.857143"
       sodipodi:ry="13.214286"
       d="m 181.86899,235.93196 c -15.38315,0.11539 -28.05084,-5.70658 -28.29408,-13.00371 -0.24324,-7.29714 12.03009,-13.30617 27.41324,-13.42155 0.31513,-0.002 0.63031,-0.002 0.94542,5.2e-4"
       sodipodi:start="1.5549857"
       sodipodi:end="4.730518"
       transform="matrix(1.0501197,0,0,0.84648445,-35.278948,-23.415571)"
       sodipodi:open="true" />
    <path
       sodipodi:type="arc"
       style="fill:none;stroke:#000000;stroke-width:3.1819427;stroke-miterlimit:4;stroke-dasharray:none"
       id="path3755-0"
       sodipodi:cx="181.42857"
       sodipodi:cy="222.71933"
       sodipodi:rx="27.857143"
       sodipodi:ry="13.214286"
       d="m 181.86899,235.93196 c -15.38315,0.11539 -28.05084,-5.70658 -28.29408,-13.00371 -0.24324,-7.29714 12.03009,-13.30617 27.41324,-13.42155 0.31513,-0.002 0.63031,-0.002 0.94542,5.2e-4"
       sodipodi:start="1.5549857"
       sodipodi:end="4.730518"
       transform="matrix(1.0501197,0,0,0.84648445,-35.544141,43.280544)"
       sodipodi:open="true" />
    <path
       style="fill:none;stroke:#000000;stroke-width:3;stroke-miterlimit:4;stroke-dasharray:none"
       d="m 476.84073,187.74065 90.77563,0 m 0,25.11572 -90.77563,0"
       id="rect3808"
       inkscape:connector-curvature="0"
       sodipodi:nodetypes="cccc" />
    <path
       sodipodi:type="star"
       style="fill:#000000;stroke:#000000;stroke-width:2.23506784;stroke-miterlimit:4;stroke-dasharray:none"
       id="path3811"
       sodipodi:sides="3"
       sodipodi:cx="214.15234"
       sodipodi:cy="88.171577"
       sodipodi:r1="8.0812206"
       sodipodi:r2="4.0406103"
       sodipodi:arg1="0"
       sodipodi:arg2="1.0471976"
       inkscape:flatsided="false"
       inkscape:rounded="0"
       inkscape:randomized="0"
       d="m 222.23356,88.171577 -6.06091,3.499272 -6.06092,3.499271 0,-6.998543 0,-6.998542 6.06092,3.499271 z"
       inkscape:transform-center-x="-3.7310283"
       transform="matrix(1.8467665,0,0,0.97554911,-135.82313,34.985831)" />
  </g>
</svg>
